<?xml version="1.0" encoding="utf-8"?>
<svg xmlns="http://www.w3.org/2000/svg" style="margin: auto; background: none; display: block; shape-rendering: auto; animation-play-state: running; animation-delay: 0s;" width="247" height="250" preserveAspectRatio="xMidYMid">
<style type="text/css" style="animation-play-state: running; animation-delay: 0s;">
  text {
    text-anchor: middle; font-size: 47px; opacity: 0;
  }
</style>
<g style="transform-origin: 123.5px 125px; transform: scale(1); animation-play-state: running; animation-delay: 0s;">
<g transform="translate(123.5,125)" style="animation-play-state: running; animation-delay: 0s;">
  <g transform="translate(0,0)" style="animation-play-state: running; animation-delay: 0s;"><g class="path" style="transform: scale(0.91); transform-origin: -101.865px -1.17245px; animation: 0.833333s linear -0.504167s infinite normal forwards running breath-0a8a7fdc-c307-4a72-a455-3310d3b7d6e7;"><path d="M3.29-17.86L5.69-17.86L6.96-24.82L6.96-24.82Q10.43-24.82 12.13-25.10L12.13-25.10L12.74-25.24L12.74-25.24Q12.08-21.95 11.28-17.86L11.28-17.86L17.11-17.86L17.01-17.01L11.14-17.01L11.14-17.01Q8.79-4.89 8.79-2.40L8.79-2.40L8.79-2.40Q8.79-0.89 10.39-0.89L10.39-0.89L10.39-0.89Q11.98-0.89 13.30-2.91L13.30-2.91L13.30-2.91Q14.62-4.93 15.18-7.29L15.18-7.29L16.03-7.00L16.03-7.00Q14.29 0.42 8.84 0.42L8.84 0.42L8.84 0.42Q6.58 0.42 5.08-0.82L5.08-0.82L5.08-0.82Q3.57-2.07 3.57-4.30L3.57-4.30L3.57-4.30Q3.57-6.53 5.50-17.01L5.50-17.01L3.20-17.01L3.29-17.86" fill="#2f2926" stroke="none" stroke-width="none" transform="translate(-112.01999950408936,11.237552714347839)" style="fill: rgb(47, 41, 38); animation-play-state: running; animation-delay: 0s;"></path></g><g class="path" style="transform: scale(0.91); transform-origin: -89.34px 2.30755px; animation: 0.833333s linear -0.458333s infinite normal forwards running breath-0a8a7fdc-c307-4a72-a455-3310d3b7d6e7;"><path d="M26.60-1.27L26.60-1.27Q25.19 0.42 23.08 0.42L23.08 0.42L23.08 0.42Q20.96 0.42 19.76-0.66L19.76-0.66L19.76-0.66Q18.57-1.74 18.57-3.48L18.57-3.48L18.57-3.48Q18.57-4.09 19.32-8.60L19.32-8.60L20.87-17.01L18.89-17.01L18.99-17.86L21.01-17.86L21.01-17.86Q24.49-17.86 26.13-18.14L26.13-18.14L26.79-18.28L23.55-0.52L23.55-0.52Q24.96-0.66 25.90-1.83L25.90-1.83L26.60-1.27" fill="#2f2926" stroke="none" stroke-width="none" transform="translate(-112.01999950408936,11.237552714347839)" style="fill: rgb(47, 41, 38); animation-play-state: running; animation-delay: 0s;"></path></g><g class="path" style="transform: scale(0.91); transform-origin: -87.135px -13.9774px; animation: 0.833333s linear -0.4125s infinite normal forwards running breath-0a8a7fdc-c307-4a72-a455-3310d3b7d6e7;"><path d="M22.47-22.80L22.47-22.80L22.47-22.80Q21.48-23.78 21.48-25.19L21.48-25.19L21.48-25.19Q21.48-26.60 22.47-27.61L22.47-27.61L22.47-27.61Q23.45-28.62 24.86-28.62L24.86-28.62L24.86-28.62Q26.27-28.62 27.28-27.61L27.28-27.61L27.28-27.61Q28.29-26.60 28.29-25.19L28.29-25.19L28.29-25.19Q28.29-23.78 27.28-22.80L27.28-22.80L27.28-22.80Q26.27-21.81 24.86-21.81L24.86-21.81L24.86-21.81Q23.45-21.81 22.47-22.80" fill="#2f2926" stroke="none" stroke-width="none" transform="translate(-112.01999950408936,11.237552714347839)" style="fill: rgb(47, 41, 38); animation-play-state: running; animation-delay: 0s;"></path></g><g class="path" style="transform: scale(0.91); transform-origin: -66.195px 2.30755px; animation: 0.833333s linear -0.366667s infinite normal forwards running breath-0a8a7fdc-c307-4a72-a455-3310d3b7d6e7;"><path d="M47.19-0.52L47.19-0.52L47.19-0.52Q48.32-0.52 49.54-1.83L49.54-1.83L50.24-1.27L50.24-1.27Q49.91-0.61 48.79-0.09L48.79-0.09L48.79-0.09Q47.66 0.42 46.30 0.42L46.30 0.42L46.30 0.42Q42.02 0.42 42.02-3.43L42.02-3.43L42.02-3.43Q42.02-5.08 42.86-9.31L42.86-9.31L42.86-9.31Q43.71-13.54 43.71-14.85L43.71-14.85L43.71-14.85Q43.71-16.87 41.78-16.87L41.78-16.87L41.78-16.87Q38.87-16.87 36.90-9.40L36.90-9.40L35.20 0L29.56 0L32.67-17.34L32.67-17.34Q31.26-17.20 30.32-16.03L30.32-16.03L29.61-16.59L29.61-16.59Q31.02-18.28 33.16-18.28L33.16-18.28L33.16-18.28Q35.30-18.28 36.47-17.20L36.47-17.20L36.47-17.20Q37.65-16.12 37.65-14.15L37.65-14.15L37.65-14.01L37.65-14.01Q39.48-18.28 43.19-18.28L43.19-18.28L43.19-18.28Q45.83-18.28 47.35-16.85L47.35-16.85L47.35-16.85Q48.88-15.42 49.02-12.83L49.02-12.83L49.02-12.83Q49.91-15.42 51.28-16.85L51.28-16.85L51.28-16.85Q52.64-18.28 55.23-18.28L55.23-18.28L55.23-18.28Q57.81-18.28 59.36-16.71L59.36-16.71L59.36-16.71Q60.91-15.13 60.91-12.36L60.91-12.36L60.91-12.36Q60.91-10.90 60.02-6.74L60.02-6.74L60.02-6.74Q59.13-2.58 59.03-0.52L59.03-0.52L59.03-0.52Q60.16-0.52 61.38-1.83L61.38-1.83L62.09-1.27L62.09-1.27Q61.76-0.61 60.63-0.09L60.63-0.09L60.63-0.09Q59.50 0.42 58.14 0.42L58.14 0.42L58.14 0.42Q53.86 0.42 53.86-3.43L53.86-3.43L53.86-3.43Q53.86-5.08 54.71-9.31L54.71-9.31L54.71-9.31Q55.55-13.54 55.55-14.85L55.55-14.85L55.55-14.85Q55.55-16.87 53.63-16.87L53.63-16.87L53.63-16.87Q50.24-16.87 48.18-6.82L48.18-6.82L48.18-6.82Q47.28-2.54 47.19-0.52" fill="#2f2926" stroke="none" stroke-width="none" transform="translate(-112.01999950408936,11.237552714347839)" style="fill: rgb(47, 41, 38); animation-play-state: running; animation-delay: 0s;"></path></g><g class="path" style="transform: scale(0.91); transform-origin: -39.64px 2.30755px; animation: 0.833333s linear -0.320833s infinite normal forwards running breath-0a8a7fdc-c307-4a72-a455-3310d3b7d6e7;"><path d="M74.45-18.28L74.45-18.28L74.45-18.28Q80.42-18.28 80.42-13.54L80.42-13.54L80.42-13.54Q80.42-10.57 77.62-9.05L77.62-9.05L77.62-9.05Q74.82-7.52 69.65-7.47L69.65-7.47L69.65-7.47Q69.56-5.78 69.56-4.79L69.56-4.79L69.56-4.79Q69.56-2.68 70.52-1.67L70.52-1.67L70.52-1.67Q71.49-0.66 72.94-0.66L72.94-0.66L72.94-0.66Q74.40-0.66 75.60-1.22L75.60-1.22L75.60-1.22Q76.80-1.79 77.50-2.56L77.50-2.56L77.50-2.56Q78.21-3.34 78.73-4.18L78.73-4.18L78.73-4.18Q79.67-5.73 79.67-6.16L79.67-6.16L80.51-5.78L80.51-5.78Q80.37-5.03 79.67-3.78L79.67-3.78L79.67-3.78Q78.96-2.54 78.11-1.74L78.11-1.74L78.11-1.74Q77.27-0.94 75.62-0.26L75.62-0.26L75.62-0.26Q73.98 0.42 71.96 0.42L71.96 0.42L71.96 0.42Q68.15 0.42 66.20-1.39L66.20-1.39L66.20-1.39Q64.25-3.20 64.25-6.34L64.25-6.34L64.25-6.34Q64.25-11.94 67.02-15.11L67.02-15.11L67.02-15.11Q69.80-18.28 74.45-18.28zM79.24-13.54L79.24-13.54Q79.24-15.09 78.33-16.10L78.33-16.10L78.33-16.10Q77.41-17.11 75.60-17.11L75.60-17.11L75.60-17.11Q73.79-17.11 72.07-14.95L72.07-14.95L72.07-14.95Q70.36-12.78 69.80-8.55L69.80-8.55L69.80-8.55Q79.24-8.60 79.24-13.54L79.24-13.54" fill="#2f2926" stroke="none" stroke-width="none" transform="translate(-112.01999950408936,11.237552714347839)" style="fill: rgb(47, 41, 38); animation-play-state: running; animation-delay: 0s;"></path></g><g class="path" style="transform: scale(0.91); transform-origin: -10.97px 2.30755px; animation: 0.833333s linear -0.275s infinite normal forwards running breath-0a8a7fdc-c307-4a72-a455-3310d3b7d6e7;"><path d="M103.12-18.28L103.12-18.28L103.12-18.28Q109.09-18.28 109.09-13.54L109.09-13.54L109.09-13.54Q109.09-10.57 106.29-9.05L106.29-9.05L106.29-9.05Q103.49-7.52 98.32-7.47L98.32-7.47L98.32-7.47Q98.23-5.78 98.23-4.79L98.23-4.79L98.23-4.79Q98.23-2.68 99.19-1.67L99.19-1.67L99.19-1.67Q100.16-0.66 101.61-0.66L101.61-0.66L101.61-0.66Q103.07-0.66 104.27-1.22L104.27-1.22L104.27-1.22Q105.47-1.79 106.17-2.56L106.17-2.56L106.17-2.56Q106.88-3.34 107.39-4.18L107.39-4.18L107.39-4.18Q108.33-5.73 108.33-6.16L108.33-6.16L109.18-5.78L109.18-5.78Q109.04-5.03 108.33-3.78L108.33-3.78L108.33-3.78Q107.63-2.54 106.78-1.74L106.78-1.74L106.78-1.74Q105.94-0.94 104.29-0.26L104.29-0.26L104.29-0.26Q102.65 0.42 100.63 0.42L100.63 0.42L100.63 0.42Q96.82 0.42 94.87-1.39L94.87-1.39L94.87-1.39Q92.92-3.20 92.92-6.34L92.92-6.34L92.92-6.34Q92.92-11.94 95.69-15.11L95.69-15.11L95.69-15.11Q98.47-18.28 103.12-18.28zM107.91-13.54L107.91-13.54Q107.91-15.09 107.00-16.10L107.00-16.10L107.00-16.10Q106.08-17.11 104.27-17.11L104.27-17.11L104.27-17.11Q102.46-17.11 100.74-14.95L100.74-14.95L100.74-14.95Q99.03-12.78 98.47-8.55L98.47-8.55L98.47-8.55Q107.91-8.60 107.91-13.54L107.91-13.54" fill="#2f2926" stroke="none" stroke-width="none" transform="translate(-112.01999950408936,11.237552714347839)" style="fill: rgb(47, 41, 38); animation-play-state: running; animation-delay: 0s;"></path></g><g class="path" style="transform: scale(0.91); transform-origin: 6.39999px -3.78245px; animation: 0.833333s linear -0.229167s infinite normal forwards running breath-0a8a7fdc-c307-4a72-a455-3310d3b7d6e7;"><path d="M120.23-1.69L120.23-1.69L120.23-1.69Q119.62-0.89 118.56-0.23L118.56-0.23L118.56-0.23Q117.50 0.42 115.81 0.42L115.81 0.42L115.81 0.42Q114.12 0.42 112.94-0.66L112.94-0.66L112.94-0.66Q111.77-1.74 111.77-3.71L111.77-3.71L111.77-3.71Q111.77-4.09 111.86-4.93L111.86-4.93L114.92-21.86L114.92-21.86Q115.76-26.51 117.24-28.48L117.24-28.48L117.24-28.48Q118.72-30.46 121.17-30.46L121.17-30.46L121.17-30.46Q122.86-30.46 123.96-29.19L123.96-29.19L123.96-29.19Q125.07-27.92 125.07-25.33L125.07-25.33L125.07-25.33Q125.07-22.75 123.07-17.95L123.07-17.95L123.07-17.95Q121.07-13.16 121.07-10.95L121.07-10.95L120.23-10.95L120.23-10.95Q120.23-13.44 122.20-18.07L122.20-18.07L122.20-18.07Q124.17-22.70 124.17-25.47L124.17-25.47L124.17-25.47Q124.17-27.17 123.40-28.39L123.40-28.39L123.40-28.39Q122.62-29.61 121.50-29.61L121.50-29.61L121.50-29.61Q121.45-28.39 119.87-18.64L119.87-18.64L119.87-18.64Q118.30-8.88 116.75-0.52L116.75-0.52L116.75-0.52Q118.06-0.52 119.19-1.88L119.19-1.88L119.19-1.88Q120.32-3.24 120.79-4.61L120.79-4.61L121.31-6.02L122.15-5.64L122.15-5.64Q122.01-4.98 121.42-3.74L121.42-3.74L121.42-3.74Q120.84-2.49 120.23-1.69" fill="#2f2926" stroke="none" stroke-width="none" transform="translate(-112.01999950408936,11.237552714347839)" style="fill: rgb(47, 41, 38); animation-play-state: running; animation-delay: 0s;"></path></g><g class="path" style="transform: scale(0.91); transform-origin: 22.825px 2.30755px; animation: 0.833333s linear -0.183333s infinite normal forwards running breath-0a8a7fdc-c307-4a72-a455-3310d3b7d6e7;"><path d="M141.28 0.42L141.28 0.42L141.28 0.42Q137.15 0.42 136.77-3.20L136.77-3.20L136.77-3.20Q134.70 0.42 131.55 0.42L131.55 0.42L131.55 0.42Q128.40 0.42 126.55-1.48L126.55-1.48L126.55-1.48Q124.69-3.38 124.69-6.82L124.69-6.82L124.69-6.82Q124.69-12.17 127.32-15.23L127.32-15.23L127.32-15.23Q129.96-18.28 134.14-18.28L134.14-18.28L134.14-18.28Q137.57-18.28 138.70-15.04L138.70-15.04L138.70-15.04Q138.93-16.45 139.21-17.86L139.21-17.86L139.21-17.86Q142.69-17.86 144.38-18.14L144.38-18.14L145.00-18.28L141.75-0.52L141.75-0.52Q143.16-0.66 144.10-1.83L144.10-1.83L144.81-1.27L144.81-1.27Q143.40 0.42 141.28 0.42zM130.00-4.42L130.00-4.42Q130.00-2.30 130.54-1.48L130.54-1.48L130.54-1.48Q131.08-0.66 132.21-0.66L132.21-0.66L132.21-0.66Q133.34-0.66 134.51-1.88L134.51-1.88L134.51-1.88Q136.06-3.48 137.00-5.92L137.00-5.92L137.00-5.92Q137.15-6.53 137.55-8.86L137.55-8.86L137.55-8.86Q137.94-11.19 138.23-12.69L138.23-12.69L138.23-12.69Q138.09-14.48 137.24-15.79L137.24-15.79L137.24-15.79Q136.39-17.11 135.13-17.11L135.13-17.11L135.13-17.11Q132.82-17.11 131.41-13.00L131.41-13.00L131.41-13.00Q130.00-8.88 130.00-4.42L130.00-4.42" fill="#2f2926" stroke="none" stroke-width="none" transform="translate(-112.01999950408936,11.237552714347839)" style="fill: rgb(47, 41, 38); animation-play-state: running; animation-delay: 0s;"></path></g><g class="path" style="transform: scale(0.91); transform-origin: 45.01px 5.41255px; animation: 0.833333s linear -0.1375s infinite normal forwards running breath-0a8a7fdc-c307-4a72-a455-3310d3b7d6e7;"><path d="M156.84 0.38L156.84 0.38L156.84 0.38Q154.68 0.38 153.41-0.61L153.41-0.61L152.00 6.96L146.41 6.96L150.82-17.67L150.82-17.67Q149.41-17.53 148.47-16.36L148.47-16.36L147.77-16.92L147.77-16.92Q149.18-18.61 151.27-18.61L151.27-18.61L151.27-18.61Q153.36-18.61 154.54-17.60L154.54-17.60L154.54-17.60Q155.71-16.59 155.81-14.76L155.81-14.76L155.81-14.76Q157.87-18.28 161.07-18.28L161.07-18.28L161.07-18.28Q164.26-18.28 165.96-16.47L165.96-16.47L165.96-16.47Q167.65-14.66 167.65-11.52L167.65-11.52L167.65-11.52Q167.65-5.97 164.64-2.80L164.64-2.80L164.64-2.80Q161.63 0.38 156.84 0.38zM155.43-11.70L153.74-2.49L153.74-2.49Q154.54-0.70 156.77-0.70L156.77-0.70L156.77-0.70Q159.00-0.70 160.67-4.46L160.67-4.46L160.67-4.46Q162.34-8.22 162.34-13.44L162.34-13.44L162.34-13.44Q162.34-15.60 161.89-16.40L161.89-16.40L161.89-16.40Q161.44-17.20 160.27-17.20L160.27-17.20L160.27-17.20Q159.09-17.20 157.85-15.79L157.85-15.79L157.85-15.79Q156.60-14.38 156.04-13.14L156.04-13.14L156.04-13.14Q155.48-11.89 155.48-11.70L155.48-11.70L155.43-11.70" fill="#2f2926" stroke="none" stroke-width="none" transform="translate(-112.01999950408936,11.237552714347839)" style="fill: rgb(47, 41, 38); animation-play-state: running; animation-delay: 0s;"></path></g><g class="path" style="transform: scale(0.91); transform-origin: 64.65px 1.22255px; animation: 0.833333s linear -0.0916667s infinite normal forwards running breath-0a8a7fdc-c307-4a72-a455-3310d3b7d6e7;"><path d="M174.37-0.80L174.37-0.80L174.37-0.80Q179.02-0.80 179.02-7.66L179.02-7.66L179.02-7.66Q179.02-9.35 178.53-11.66L178.53-11.66L178.53-11.66Q178.04-13.96 177.94-14.52L177.94-14.52L177.94-14.52Q175.07-11.56 171.50-10.95L171.50-10.95L171.50-12.08L171.50-12.08Q174.89-12.83 177.85-15.93L177.85-15.93L177.85-16.12L177.85-16.12Q177.85-17.25 178.18-18.33L178.18-18.33L178.18-18.33Q178.51-19.41 178.84-19.93L178.84-19.93L179.16-20.45L180.29-20.45L180.29-20.45Q180.29-18.38 180.95-16.66L180.95-16.66L180.95-16.66Q181.61-14.95 182.41-13.89L182.41-13.89L182.41-13.89Q183.21-12.83 183.86-11.12L183.86-11.12L183.86-11.12Q184.52-9.40 184.52-7.33L184.52-7.33L184.52-7.33Q184.52-4.00 182.01-1.79L182.01-1.79L182.01-1.79Q179.49 0.42 175.97 0.42L175.97 0.42L175.97 0.42Q172.44 0.42 170.63-1.18L170.63-1.18L170.63-1.18Q168.82-2.77 168.82-4.86L168.82-4.86L168.82-4.86Q168.82-6.96 169.86-7.87L169.86-7.87L169.86-7.87Q170.89-8.79 172.30-8.79L172.30-8.79L172.30-8.79Q173.71-8.79 174.63-7.87L174.63-7.87L174.63-7.87Q175.55-6.96 175.55-5.52L175.55-5.52L175.55-5.52Q175.55-4.09 174.65-3.10L174.65-3.10L174.65-3.10Q173.76-2.12 172.35-2.12L172.35-2.12L172.35-2.12Q171.74-2.12 171.08-2.30L171.08-2.30L171.08-2.30Q172.11-0.80 174.37-0.80" fill="#2f2926" stroke="none" stroke-width="none" transform="translate(-112.01999950408936,11.237552714347839)" style="fill: rgb(47, 41, 38); animation-play-state: running; animation-delay: 0s;"></path></g><g class="path" style="transform: scale(0.91); transform-origin: 83.31px 2.30755px; animation: 0.833333s linear -0.0458333s infinite normal forwards running breath-0a8a7fdc-c307-4a72-a455-3310d3b7d6e7;"><path d="M197.40-18.28L197.40-18.28L197.40-18.28Q203.37-18.28 203.37-13.54L203.37-13.54L203.37-13.54Q203.37-10.57 200.57-9.05L200.57-9.05L200.57-9.05Q197.78-7.52 192.61-7.47L192.61-7.47L192.61-7.47Q192.51-5.78 192.51-4.79L192.51-4.79L192.51-4.79Q192.51-2.68 193.48-1.67L193.48-1.67L193.48-1.67Q194.44-0.66 195.90-0.66L195.90-0.66L195.90-0.66Q197.35-0.66 198.55-1.22L198.55-1.22L198.55-1.22Q199.75-1.79 200.45-2.56L200.45-2.56L200.45-2.56Q201.16-3.34 201.68-4.18L201.68-4.18L201.68-4.18Q202.62-5.73 202.62-6.16L202.62-6.16L203.46-5.78L203.46-5.78Q203.32-5.03 202.62-3.78L202.62-3.78L202.62-3.78Q201.91-2.54 201.07-1.74L201.07-1.74L201.07-1.74Q200.22-0.94 198.57-0.26L198.57-0.26L198.57-0.26Q196.93 0.42 194.91 0.42L194.91 0.42L194.91 0.42Q191.10 0.42 189.15-1.39L189.15-1.39L189.15-1.39Q187.20-3.20 187.20-6.34L187.20-6.34L187.20-6.34Q187.20-11.94 189.97-15.11L189.97-15.11L189.97-15.11Q192.75-18.28 197.40-18.28zM202.19-13.54L202.19-13.54Q202.19-15.09 201.28-16.10L201.28-16.10L201.28-16.10Q200.36-17.11 198.55-17.11L198.55-17.11L198.55-17.11Q196.74-17.11 195.03-14.95L195.03-14.95L195.03-14.95Q193.31-12.78 192.75-8.55L192.75-8.55L192.75-8.55Q202.19-8.60 202.19-13.54L202.19-13.54" fill="#2f2926" stroke="none" stroke-width="none" transform="translate(-112.01999950408936,11.237552714347839)" style="fill: rgb(47, 41, 38); animation-play-state: running; animation-delay: 0s;"></path></g><g class="path" style="transform: scale(0.91); transform-origin: 104.53px -3.78245px; animation: 0.833333s linear 0s infinite normal forwards running breath-0a8a7fdc-c307-4a72-a455-3310d3b7d6e7;"><path d="M222.22 0.42L222.22 0.42L222.22 0.42Q218.08 0.42 217.70-3.10L217.70-3.10L217.70-3.10Q215.64 0.42 212.44 0.42L212.44 0.42L212.44 0.42Q209.24 0.42 207.55-1.39L207.55-1.39L207.55-1.39Q205.86-3.20 205.86-6.34L205.86-6.34L205.86-6.34Q205.86-11.89 208.49-15.09L208.49-15.09L208.49-15.09Q211.12-18.28 215.31-18.28L215.31-18.28L215.31-18.28Q217.70-18.28 219.02-16.83L219.02-16.83L219.02-16.83Q219.58-16.07 219.72-15.70L219.72-15.70L222.26-29.52L222.26-29.52Q220.85-29.38 219.91-28.20L219.91-28.20L219.21-28.76L219.21-28.76Q220.62-30.46 222.76-30.46L222.76-30.46L222.76-30.46Q224.89-30.46 226.07-29.38L226.07-29.38L226.07-29.38Q227.24-28.29 227.24-26.32L227.24-26.32L227.24-26.32Q227.24-25.94 227.15-25.10L227.15-25.10L227.15-25.10Q224.85-12.17 222.69-0.52L222.69-0.52L222.69-0.52Q224.10-0.66 225.04-1.83L225.04-1.83L225.74-1.27L225.74-1.27Q224.33 0.42 222.22 0.42zM211.17-4.42L211.17-4.42Q211.17-2.26 211.62-1.46L211.62-1.46L211.62-1.46Q212.06-0.66 213.03-0.66L213.03-0.66L213.03-0.66Q213.99-0.66 214.88-1.32L214.88-1.32L214.88-1.32Q215.78-1.97 216.39-3.01L216.39-3.01L216.39-3.01Q217.52-4.75 217.99-5.97L217.99-5.97L219.35-13.39L219.35-13.39Q219.25-14.90 218.36-16.14L218.36-16.14L218.36-16.14Q217.47-17.39 215.31-17.39L215.31-17.39L215.31-17.39Q213.80-17.39 212.49-12.97L212.49-12.97L212.49-12.97Q211.17-8.55 211.17-4.42L211.17-4.42" fill="#2f2926" stroke="none" stroke-width="none" transform="translate(-112.01999950408936,11.237552714347839)" style="fill: rgb(47, 41, 38); animation-play-state: running; animation-delay: 0s;"></path></g></g>
</g>
</g>
<style id="breath-0a8a7fdc-c307-4a72-a455-3310d3b7d6e7" data-anikit="">@keyframes breath-0a8a7fdc-c307-4a72-a455-3310d3b7d6e7
{
  0% {
    animation-timing-function: cubic-bezier(0.9647,0.2413,-0.0705,0.7911);
    transform: scale(0.9099999999999999);
  }
  51% {
    animation-timing-function: cubic-bezier(0.9226,0.2631,-0.0308,0.7628);
    transform: scale(1.02994);
  }
  100% {
    transform: scale(0.9099999999999999);
  }
}</style></svg>